<svg width="281" height="64" viewBox="0 0 281 64" fill="none" xmlns="http://www.w3.org/2000/svg">
<path d="M0 18.1179V46.3301H10.1088V24.2999L16.7461 46.3301H25.2746L31.9886 24.2999V46.3301H42.1181V18.1179H26.1353L20.9839 35.3036L16.2131 18.1179H0ZM48.2971 18.1179V46.3301H59.2271V18.1179H48.2971ZM65.3884 18.1179V46.3301H76.4719V37.7268H82.9961C84.3566 37.7268 85.323 37.9394 85.8953 38.3573C86.4802 38.7783 86.8286 39.501 86.9447 40.5317C87.0069 41.0781 87.0546 41.8548 87.0795 42.8585C87.1158 44.5756 87.3201 45.7328 87.6882 46.3311H99.8397V45.8925C99.0257 45.485 98.527 43.4392 98.3496 39.7499L98.3113 38.8519C98.2221 36.9046 97.9245 35.5525 97.4133 34.7893C96.9177 34.0147 96.0467 33.3646 94.8003 32.842C96.252 32.282 97.3905 31.3747 98.2179 30.117C99.0454 28.8437 99.455 27.3754 99.455 25.7091C99.455 24.3352 99.176 23.1282 98.6161 22.0851C98.0697 21.0285 97.2692 20.1917 96.2136 19.5675C95.3862 19.0718 94.2341 18.71 92.7586 18.4798C91.2841 18.2392 89.3202 18.1168 86.8669 18.1168L65.3884 18.1179ZM119.507 18.1179V33.7617C119.507 36.1393 119.253 37.7144 118.744 38.4921C118.235 39.2667 117.324 39.6576 116.016 39.6576C114.871 39.6576 114.026 39.248 113.479 38.434C112.933 37.6221 112.658 36.3623 112.658 34.6597V34.2553H101.688V35.5514C101.688 39.6617 102.846 42.6179 105.159 44.4222C107.474 46.217 111.304 47.1129 116.645 47.1129C119.531 47.1129 121.965 46.7697 123.949 46.0822C125.947 45.3969 127.459 44.3703 128.489 43.0099C129.201 42.0704 129.704 40.9319 129.996 39.5964C130.288 38.2629 130.437 35.9475 130.437 32.6553V18.1179H119.507ZM143.827 18.1179L131.599 46.3301H143.311L144.322 43.5615H156.322L157.255 46.3301H169.1L157.694 18.1179H143.827ZM171.026 18.1179V46.3301H181.33V29.8121L193.177 46.3301H205.435V18.1179H194.847V34.3683L183.961 18.1179H171.026ZM76.4719 25.2715H82.5762C84.4966 25.2715 85.774 25.4561 86.4096 25.8242C87.0587 26.1809 87.3854 26.8165 87.3854 27.7311C87.3854 28.6591 87.0422 29.3217 86.3547 29.7136C85.6807 30.1097 84.51 30.3057 82.8448 30.3057H76.473L76.4719 25.2715ZM150.504 26.6817L153.899 36.5997H146.899L150.504 26.6817ZM248.812 0C231.355 0 217.218 14.1123 217.218 31.5178C217.218 48.9254 231.354 63.0336 248.812 63.0336C266.251 63.0336 280.407 48.9254 280.407 31.5178C280.407 14.1113 266.251 0 248.812 0ZM235.662 17.4615C239.021 17.4615 241.905 18.4176 243.67 19.8236C245.416 21.2162 246.004 23.4476 246.004 26.0077C246.004 27.6875 245.568 29.2843 244.714 30.7972C243.88 32.31 242.589 33.8675 240.862 35.4768C239.781 36.4763 239.154 37.2468 238.054 38.0939C236.954 38.9265 236.688 39.249 236.214 39.584L247.219 39.6482V45.5721H226.232L226.251 40.6893C227.845 39.5342 229.458 38.3065 231.052 37.0062C232.684 35.708 233.974 34.5892 234.942 33.6497C236.385 32.2551 237.409 31.0409 238.036 30.005C238.643 28.9691 238.946 27.9447 238.946 26.9326C238.946 25.7184 238.548 24.7831 237.75 24.1278C236.973 23.4621 235.853 23.1261 234.392 23.1261C233.292 23.1261 232.172 23.544 230.919 23.938C229.496 24.5695 230.236 24.2533 228.965 24.7499L227.067 19.6079C227.902 19.2377 229.003 18.5306 230.654 18.1625C232.323 17.7923 234.012 17.4563 235.663 17.4563L235.662 17.4615ZM267.902 17.4895V33.376L271.336 33.4029L271.374 39.0157H267.902V45.5607H261.374L261.393 39.0406L249.306 39.0136V33.7171L259.609 17.5611L267.902 17.4874V17.4895ZM261.393 23.9961L256.156 33.3926L261.393 33.4175V23.9961Z" fill="#E50000"/>
</svg>
